<svg id="组_1_拷贝_5" data-name="组 1 拷贝 5" xmlns="http://www.w3.org/2000/svg" width="4647.844" height="411.812" viewBox="0 0 4647.844 411.812">
  <defs>
    <style>
      .cls-1 {
        fill: #191919;
      }

      .cls-1, .cls-2, .cls-3, .cls-4, .cls-5, .cls-6, .cls-7, .cls-8 {
        fill-rule: evenodd;
      }

      .cls-2 {
        fill: #2e2a2b;
      }

      .cls-3 {
        fill: #b036ad;
      }

      .cls-4 {
        fill: #0c0b0b;
      }

      .cls-5, .cls-8 {
        fill: #100e0f;
      }

      .cls-5 {
        opacity: 0.42;
        mix-blend-mode: darken;
      }

      .cls-6 {
        fill: #f70d24;
      }

      .cls-7 {
        fill: #ffad1a;
      }

      .cls-9 {
        font-size: 375px;
        fill: #090909;
        font-family: "PingFang SC";
        font-weight: 800;
      }
    </style>
  </defs>
  <g id="组_2_拷贝_10" data-name="组 2 拷贝 10">
    <path id="形状_1" data-name="形状 1" class="cls-1" d="M272.765,381.369c163.306,68.3,313.357,98.289,355.916,52.518s-141-160.122-227.265-199.024S109.97,119.374,22.483,153.121,136.239,324.265,272.765,381.369Z" transform="translate(-1.156 -44)"/>
    <path id="形状_7" data-name="形状 7" class="cls-2" d="M312.849,256.548c64.069,24.377,133.293,30.756,138.229,13.837s6.187-58.12,33.088-97.893c24.258-35.865,43.122-54.982,92.088-53.83,54.612,1.285-.594-36.743-18.452-46.352-21.121-11.364-76.917-24.043-109.04-25.571-41.44-1.971-67.429-1.008-125.787,21.859C267.564,90.312,216.606,163.022,209.56,176.312S250.472,232.814,312.849,256.548Z" transform="translate(-1.156 -44)"/>
    <path id="形状_3" data-name="形状 3" class="cls-3" d="M286.166,299.336c24.322,10.843,119.693,44.2,142.453,35.632s21.849-18.409,23.318-25.085,6.5-39.277,1.119-39.813-78.4-7.322-127.788-27.321-100.838-51.135-108.929-60.8-9.43-4.55-17.659,18.2-5.137,39.436,23.027,60.8S265.043,289.918,286.166,299.336Z" transform="translate(-1.156 -44)"/>
    <path id="形状_8" data-name="形状 8" class="cls-4" d="M614.625,377.827c-18.127-23.009-60.8-55-93.808-75.986-31.88-20.274-67.424-40.335-72.765-42.685s-11.934,57.146-6.847,61.685,69.174,34.24,89.336,46.317c19.524,11.7,57.773,44.018,30.2,58.333-35.862,18.618-61.029,10.613-88.529,9.145-30.3-1.617-76.695-11.676-90.637-13.88s69.75,23.763,133.549,32.3c32.668,4.371,84.832,5.419,108.737-14.356S629.651,396.9,614.625,377.827Z" transform="translate(-1.156 -44)"/>
    <path id="形状_5_拷贝" data-name="形状 5 拷贝" class="cls-5" d="M451.261,272.749c1.126-5.9,8.444-57.373,23.984-84.2s22.472-37.058,38-49.595c12.946-10.45,23.085-17.291,49.625-19.292,26.193-1.975,25.254-.99,30.355-2.852s6.511-3.171-.322-4.846c-7.611-1.867-42.12-11.055-75.269.556-34.63,12.132-52.385,31.667-69.911,55.1-20.5,27.4-26.264,40.052-36.734,60.02-10.938,20.86-15.117,41.684-3.56,44.685C423.88,276.591,450.136,278.65,451.261,272.749ZM574.722,575.042" transform="translate(-1.156 -44)"/>
    <path id="形状_3_拷贝" data-name="形状 3 拷贝" class="cls-6" d="M286.166,299.336c24.322,10.843,119.693,44.2,142.453,35.632s21.849-18.409,23.318-25.085,6.5-39.277,1.119-39.813-78.4-7.322-127.788-27.321-100.838-51.135-108.929-60.8-9.43-4.55-17.659,18.2-5.137,39.436,23.027,60.8S265.043,289.918,286.166,299.336Z" transform="translate(-1.156 -44)"/>
    <path id="形状_4" data-name="形状 4" class="cls-7" d="M322.074,238.148c44.031,16.971,47,10.134,39.112,32.689s-10.794,30.361-14.6,39.617S344.4,321.26,332.546,317.1s-56.911-22.221-65.186-25.632-13.361-1.991-8.233-14.33,14.723-38.295,18.332-47.311,6.478-5.773,11.254-4S311.317,234,322.074,238.148Z" transform="translate(-1.156 -44)"/>
    <path id="形状_5" data-name="形状 5" class="cls-8" d="M287.33,244.3c-2.488,6.882-9.667,24.834-11.263,30.127s-0.743,6.367,11.4,10.756,33.759,12.87,39.63,14.942,8.957,0.825,10.389-3.275,4.146-8.681-.227-10.437-14.725-6.5-19.288-8.067-4.18-10.648,3.248-7.9,10.093,4.018,15.139,5.788,7.934,1.868,9.526-2.548,5.061-9.988-2.066-12.839-45.385-16.88-49.947-18.714S288.33,241.535,287.33,244.3Z" transform="translate(-1.156 -44)"/>
  </g>
  <text id="LOUISA_ZHANG" data-name="LOUISA ZHANG" class="cls-9" transform="matrix(1.379, -0.002, 0, 1.46, 768.207, 403.533)">LOUISA ZHANG</text>
</svg>
