<svg id="组_2_拷贝_8" data-name="组 2 拷贝 8" xmlns="http://www.w3.org/2000/svg" width="1589.932" height="913.406" viewBox="0 0 1589.932 913.406">
  <defs>
    <style>
      .cls-1 {
        fill: #191919;
      }

      .cls-1, .cls-2, .cls-3, .cls-4, .cls-5, .cls-6, .cls-7, .cls-8 {
        fill-rule: evenodd;
      }

      .cls-2 {
        fill: #2e2a2b;
      }

      .cls-3 {
        fill: #b036ad;
      }

      .cls-4 {
        fill: #0c0b0b;
      }

      .cls-5, .cls-8 {
        fill: #100e0f;
      }

      .cls-5 {
        opacity: 0.42;
        mix-blend-mode: darken;
      }

      .cls-6 {
        fill: #f70d24;
      }

      .cls-7 {
        fill: #ffad1a;
      }
    </style>
  </defs>
  <path id="形状_1" data-name="形状 1" class="cls-1" d="M813.115,927c413.215,0,763.785-69.564,815.015-204.492S1181.52,507.827,960.746,501.838s-731.76,13.609-890.662,162.9S467.661,927,813.115,927Z" transform="translate(-42.188 -13.594)"/>
  <path id="形状_7" data-name="形状 7" class="cls-2" d="M788.8,626.487c159.964-5.137,315.07-53.049,310.71-93.34S1061.25,404.3,1084,296c20.52-97.657,45.58-151.766,151-196,111.68-46.859-33.9-77.6-81-82-40.67-3.8-141.57-9.908-215,6C846.488,44.042,775.765,62.984,652,200S497.962,513.424,494.555,547.885,633.056,631.488,788.8,626.487Z" transform="translate(-42.188 -13.594)"/>
  <path id="形状_3" data-name="形状 3" class="cls-3" d="M769.192,740.99c62.14,1.424,297.658-12.435,339.188-50.834s30.82-58.466,28.06-73.941-20.84-89.136-32.94-85.494-175.762,54.058-300.145,55.456S540.247,567.162,514.2,553.828s-24.4-1.285-21.962,54.3,23.932,88.261,103.707,108.6S715.227,739.754,769.192,740.99Z" transform="translate(-42.188 -13.594)"/>
  <path id="形状_8" data-name="形状 8" class="cls-4" d="M1548,616c-59.57-32.743-180.1-62.751-270-78-86.83-14.729-181.38-25.754-195-26s24.99,131.883,40,137,179.75,11.264,234,19c52.54,7.491,163.82,42.137,117,97-60.89,71.35-122.33,76.7-183,98-66.84,23.464-175.94,43.3-208,51s171.68-11.483,317-50c74.41-19.722,187.95-63.807,222-127S1597.38,643.142,1548,616Z" transform="translate(-42.188 -13.594)"/>
  <path id="形状_5_拷贝" data-name="形状 5 拷贝" class="cls-5" d="M1102,538c-2.81-13.525-32.72-129.267-23-200s15.6-98.6,38-139c18.67-33.672,34.48-57.193,90-85,54.79-27.443,53.64-24.52,63-33s11.24-12.51-5-10c-18.09,2.8-100.75,13.928-162,68-63.99,56.491-84.97,113.714-102,179-19.917,76.359-21.129,108.323-26,160-5.088,53.985,4.383,101.892,32,98C1046.3,570.462,1104.81,551.525,1102,538Zm535,532" transform="translate(-42.188 -13.594)"/>
  <path id="形状_3_拷贝" data-name="形状 3 拷贝" class="cls-6" d="M769.192,740.99c62.14,1.424,297.658-12.435,339.188-50.834s30.82-58.466,28.06-73.941-20.84-89.136-32.94-85.494-175.762,54.058-300.145,55.456S540.247,567.162,514.2,553.828s-24.4-1.285-21.962,54.3,23.932,88.261,103.707,108.6S715.227,739.754,769.192,740.99Z" transform="translate(-42.188 -13.594)"/>
  <path id="形状_4" data-name="形状 4" class="cls-7" d="M792.374,579.245c110.129-3.067,110.475-20.218,113.468,34.66s3.66,74.022,3.66,97.047,4.883,24.874-24.4,26.572-142.6,3.361-163.492,3.466-30.614,7.636-30.5-23.106-2.223-94.35-2.44-116.688,8.86-18,20.741-18.485S765.469,579.994,792.374,579.245Z" transform="translate(-42.188 -13.594)"/>
  <path id="形状_5" data-name="形状 5" class="cls-8" d="M722.829,623.147c0.74,16.814,1.185,61.29,2.44,73.941s4.052,14.174,34.163,12.708,84.312-2.651,98.827-3.466,20.069-6.2,19.521-16.174,1.24-22.106-9.761-21.951-37.559-.718-48.8,0-18.481-18.887,0-19.641,25.358-.431,37.823-1.155,18.787-3.077,18.3-13.864,2.056-25.692-15.861-25.417-112.971,4.464-124.449,4.621S722.532,616.391,722.829,623.147Z" transform="translate(-42.188 -13.594)"/>
</svg>
