<svg id="组_1_拷贝_5" data-name="组 1 拷贝 5" xmlns="http://www.w3.org/2000/svg" width="4648.969" height="453.188" viewBox="0 0 4648.969 453.188">
  <defs>
    <style>
      .cls-1 {
        fill: #191919;
      }

      .cls-1, .cls-2, .cls-3, .cls-4, .cls-5, .cls-6, .cls-7, .cls-8 {
        fill-rule: evenodd;
      }

      .cls-2 {
        fill: #2e2a2b;
      }

      .cls-3 {
        fill: #b036ad;
      }

      .cls-4 {
        fill: #0c0b0b;
      }

      .cls-5, .cls-8 {
        fill: #100e0f;
      }

      .cls-5 {
        opacity: 0.42;
        mix-blend-mode: darken;
      }

      .cls-6 {
        fill: #f70d24;
      }

      .cls-7 {
        fill: #ffad1a;
      }

      .cls-9 {
        font-size: 375px;
        fill: #090909;
        font-family: "PingFang SC";
        font-weight: 800;
      }
    </style>
  </defs>
  <g id="组_2_拷贝_8" data-name="组 2 拷贝 8">
    <path id="形状_1" data-name="形状 1" class="cls-1" d="M350.383,456c187.805,0,347.138-34.516,370.422-101.463S517.823,248.02,417.481,245.049,84.9,251.8,12.679,325.875,193.376,456,350.383,456Z" transform="translate(-0.031 -2.813)"/>
    <path id="形状_7" data-name="形状 7" class="cls-2" d="M339.332,306.9c72.7-2.548,143.2-26.321,141.214-46.312s-17.388-63.931-7.047-117.664c9.325-48.455,20.715-75.3,68.629-97.249,50.757-23.25-15.407-38.5-36.814-40.686C486.827,3.1,440.971.068,407.6,7.961c-42.046,9.944-74.189,19.343-130.44,87.325S207.148,250.8,205.6,267.9,268.547,309.377,339.332,306.9Z" transform="translate(-0.031 -2.813)"/>
    <path id="形状_3" data-name="形状 3" class="cls-3" d="M330.42,363.708c28.243,0.706,135.286-6.17,154.158-25.222s14.007-29.009,12.754-36.687-9.473-44.227-14.972-42.419S402.479,286.2,345.947,286.9s-119.581-9.435-131.422-16.051-11.089-.637-9.981,26.942,10.877,43.793,47.134,53.884S305.893,363.1,330.42,363.708Z" transform="translate(-0.031 -2.813)"/>
    <path id="形状_8" data-name="形状 8" class="cls-4" d="M684.385,301.692c-27.073-16.246-81.856-31.135-122.714-38.7-39.465-7.308-82.437-12.778-88.626-12.9s11.356,65.436,18.179,67.975,81.695,5.589,106.352,9.427c23.877,3.717,74.454,20.907,53.176,48.128-27.672,35.4-55.6,38.057-83.172,48.624-30.381,11.642-79.966,21.486-94.535,25.305s78.029-5.7,144.075-24.809c33.817-9.785,85.424-31.658,100.9-63.013S706.827,315.159,684.385,301.692Z" transform="translate(-0.031 -2.813)"/>
    <path id="形状_5_拷贝" data-name="形状 5 拷贝" class="cls-5" d="M481.68,262.991c-1.278-6.711-14.873-64.138-10.453-99.233s7.092-48.924,17.27-68.968c8.485-16.707,15.671-28.377,40.905-42.174C554.3,39,553.781,40.45,558.035,36.243s5.109-6.207-2.272-4.962c-8.221,1.387-45.791,6.91-73.629,33.739-29.083,28.029-38.618,56.421-46.358,88.814-9.052,37.887-9.6,53.747-11.817,79.387-2.313,26.786,1.992,50.555,14.544,48.624C456.365,279.1,482.958,269.7,481.68,262.991ZM724.835,526.952" transform="translate(-0.031 -2.813)"/>
    <path id="形状_3_拷贝" data-name="形状 3 拷贝" class="cls-6" d="M330.42,363.708c28.243,0.706,135.286-6.17,154.158-25.222s14.007-29.009,12.754-36.687-9.473-44.227-14.972-42.419S402.479,286.2,345.947,286.9s-119.581-9.435-131.422-16.051-11.089-.637-9.981,26.942,10.877,43.793,47.134,53.884S305.893,363.1,330.42,363.708Z" transform="translate(-0.031 -2.813)"/>
    <path id="形状_4" data-name="形状 4" class="cls-7" d="M340.956,283.455c50.053-1.521,50.211-10.031,51.571,17.2s1.664,36.728,1.664,48.152,2.219,12.342-11.091,13.184-64.81,1.668-74.306,1.72-13.914,3.789-13.863-11.465-1.01-46.813-1.109-57.9,4.027-8.933,9.427-9.172S328.728,283.827,340.956,283.455Z" transform="translate(-0.031 -2.813)"/>
    <path id="形状_5" data-name="形状 5" class="cls-8" d="M309.349,305.238c0.336,8.343.538,30.41,1.109,36.687s1.841,7.033,15.526,6.306,38.32-1.316,44.917-1.72,9.121-3.077,8.872-8.025,0.564-10.968-4.436-10.892-17.071-.356-22.181,0-8.4-9.371,0-9.745,11.525-.214,17.19-0.573,8.539-1.527,8.318-6.879,0.934-12.747-7.209-12.611S320.11,300,314.894,300.079,309.213,301.886,309.349,305.238Z" transform="translate(-0.031 -2.813)"/>
  </g>
  <text id="LOUISA_ZHANG" data-name="LOUISA ZHANG" class="cls-9" transform="matrix(1.379, -0.002, 0, 1.46, 769.332, 444.72)">LOUISA ZHANG</text>
</svg>
