<svg id="组_2_拷贝_11" data-name="组 2 拷贝 11" xmlns="http://www.w3.org/2000/svg" width="24.625" height="15.937" viewBox="0 0 24.625 15.937">
  <defs>
    <style>
      .cls-1 {
        fill: #191919;
      }

      .cls-1, .cls-2, .cls-3, .cls-4, .cls-5, .cls-6, .cls-7, .cls-8 {
        fill-rule: evenodd;
      }

      .cls-2 {
        fill: #2e2a2b;
      }

      .cls-3 {
        fill: #b036ad;
      }

      .cls-4 {
        fill: #0c0b0b;
      }

      .cls-5, .cls-8 {
        fill: #100e0f;
      }

      .cls-5 {
        opacity: 0.42;
        mix-blend-mode: darken;
      }

      .cls-6 {
        fill: #f70d24;
      }

      .cls-7 {
        fill: #ffad1a;
      }
    </style>
  </defs>
  <path id="形状_1" data-name="形状 1" class="cls-1" d="M692.126,648.12c6.339,2.655,12.164,3.821,13.816,2.042s-5.473-6.225-8.822-7.737-11.313-4.489-14.708-3.177S686.827,645.9,692.126,648.12Z" transform="translate(-681.594 -635.094)"/>
  <path id="形状_7" data-name="形状 7" class="cls-2" d="M693.682,643.268c2.487,0.948,5.174,1.2,5.366.538A9.916,9.916,0,0,1,700.332,640c0.942-1.395,1.674-2.138,3.575-2.093,2.119,0.05-.023-1.428-0.717-1.8a13.455,13.455,0,0,0-4.232-.994,9.785,9.785,0,0,0-4.883.85c-2.15.844-4.128,3.67-4.4,4.187S691.261,642.345,693.682,643.268Z" transform="translate(-681.594 -635.094)"/>
  <path id="形状_3" data-name="形状 3" class="cls-3" d="M692.647,644.931c0.944,0.422,4.646,1.719,5.529,1.386a1.063,1.063,0,0,0,.9-0.976c0.057-.259.253-1.526,0.044-1.547a20.917,20.917,0,0,1-4.961-1.062,17.115,17.115,0,0,1-4.228-2.364c-0.314-.376-0.366-0.177-0.685.708s-0.2,1.533.894,2.363A10.823,10.823,0,0,0,692.647,644.931Z" transform="translate(-681.594 -635.094)"/>
  <path id="形状_8" data-name="形状 8" class="cls-4" d="M705.4,647.983a17.257,17.257,0,0,0-3.641-2.954c-1.238-.788-2.617-1.568-2.825-1.66a4.553,4.553,0,0,0-.265,2.4c0.2,0.177,2.685,1.331,3.467,1.8,0.758,0.454,2.243,1.711,1.172,2.267a5.451,5.451,0,0,1-3.436.356,34.872,34.872,0,0,1-3.518-.54,25.5,25.5,0,0,0,5.184,1.256c1.268,0.17,3.293.211,4.221-.558S705.979,648.724,705.4,647.983Z" transform="translate(-681.594 -635.094)"/>
  <path id="形状_5_拷贝" data-name="形状 5 拷贝" class="cls-5" d="M699.055,643.9a11.788,11.788,0,0,1,.931-3.273,5.772,5.772,0,0,1,1.475-1.928,2.91,2.91,0,0,1,1.926-.75,4.8,4.8,0,0,0,1.179-.111c0.2-.072.252-0.123-0.013-0.188a5.257,5.257,0,0,0-2.922.021,5.4,5.4,0,0,0-2.713,2.142,13.516,13.516,0,0,0-1.426,2.333c-0.425.811-.587,1.621-0.138,1.737C697.992,644.047,699.011,644.127,699.055,643.9Zm4.792,11.751" transform="translate(-681.594 -635.094)"/>
  <path id="形状_3_拷贝" data-name="形状 3 拷贝" class="cls-6" d="M692.647,644.931c0.944,0.422,4.646,1.719,5.529,1.386a1.063,1.063,0,0,0,.9-0.976c0.057-.259.253-1.526,0.044-1.547a20.917,20.917,0,0,1-4.961-1.062,17.115,17.115,0,0,1-4.228-2.364c-0.314-.376-0.366-0.177-0.685.708s-0.2,1.533.894,2.363A10.823,10.823,0,0,0,692.647,644.931Z" transform="translate(-681.594 -635.094)"/>
  <path id="形状_4" data-name="形状 4" class="cls-7" d="M694.04,642.553c1.71,0.66,1.825.394,1.519,1.271s-0.419,1.18-.567,1.54-0.085.42-.545,0.258-2.209-.864-2.53-1-0.519-.078-0.32-0.557,0.572-1.489.712-1.84,0.251-.224.436-0.155S693.623,642.392,694.04,642.553Z" transform="translate(-681.594 -635.094)"/>
  <path id="形状_5" data-name="形状 5" class="cls-8" d="M692.692,642.792c-0.1.267-.375,0.965-0.437,1.171s-0.029.248,0.442,0.418,1.311,0.5,1.538.581,0.348,0.032.4-.127,0.161-.338-0.009-0.406-0.572-.253-0.749-0.314-0.162-.413.126-0.306,0.392,0.156.588,0.225,0.308,0.072.37-.1,0.2-.388-0.081-0.5-1.761-.656-1.938-0.727S692.731,642.685,692.692,642.792Z" transform="translate(-681.594 -635.094)"/>
</svg>
