<svg id="组_2_拷贝_10" data-name="组 2 拷贝 10" xmlns="http://www.w3.org/2000/svg" width="1443.06" height="933.562" viewBox="0 0 1443.06 933.562">
  <defs>
    <style>
      .cls-1 {
        fill: #191919;
      }

      .cls-1, .cls-2, .cls-3, .cls-4, .cls-5, .cls-6, .cls-7, .cls-8 {
        fill-rule: evenodd;
      }

      .cls-2 {
        fill: #2e2a2b;
      }

      .cls-3 {
        fill: #b036ad;
      }

      .cls-4 {
        fill: #0c0b0b;
      }

      .cls-5, .cls-8 {
        fill: #100e0f;
      }

      .cls-5 {
        opacity: 0.42;
        mix-blend-mode: darken;
      }

      .cls-6 {
        fill: #f70d24;
      }

      .cls-7 {
        fill: #ffad1a;
      }
    </style>
  </defs>
  <path id="形状_1" data-name="形状 1" class="cls-1" d="M619.909,765.959C991.442,921.584,1332.82,989.9,1429.65,885.617S1108.85,520.792,912.6,432.157,249.538,169.026,50.5,245.916,309.3,635.853,619.909,765.959Z" transform="translate(-2 -1.969)"/>
  <path id="形状_7" data-name="形状 7" class="cls-2" d="M711.105,481.564c145.76,55.541,303.245,70.077,314.475,31.528s14.08-132.422,75.28-223.042c55.19-81.716,98.11-125.271,209.51-122.646,124.25,2.928-1.35-83.717-41.98-105.61C1220.34,35.9,1093.4,7.014,1020.31,3.533c-94.273-4.491-153.4-2.3-286.168,49.805-126.065,49.472-242,215.137-258.028,245.416S569.19,427.489,711.105,481.564Z" transform="translate(-2 -1.969)"/>
  <path id="形状_3" data-name="形状 3" class="cls-3" d="M650.4,579.053c55.335,24.707,272.312,100.716,324.093,81.184s49.71-41.941,53.05-57.153,14.79-89.489,2.54-90.71-178.362-16.683-290.723-62.248S509.944,333.618,491.536,311.594s-21.454-10.366-40.175,41.462-11.688,89.852,52.388,138.525S602.34,557.6,650.4,579.053Z" transform="translate(-2 -1.969)"/>
  <path id="形状_8" data-name="形状 8" class="cls-4" d="M1397.67,757.89c-41.24-52.425-138.33-125.3-213.42-173.128-72.53-46.193-153.4-91.9-165.55-97.254s-27.151,130.2-15.58,140.542,157.38,78.014,203.25,105.532c44.42,26.646,131.44,100.29,68.7,132.906-81.58,42.419-138.84,24.181-201.41,20.837-68.92-3.685-174.484-26.6-206.2-31.626s158.681,54.142,303.831,73.593c74.32,9.96,193,12.347,247.39-32.709S1431.85,801.346,1397.67,757.89Z" transform="translate(-2 -1.969)"/>
  <path id="形状_5_拷贝" data-name="形状 5 拷贝" class="cls-5" d="M1026,518.477c2.56-13.447,19.21-130.72,54.57-191.842s51.12-84.434,86.46-113c29.45-23.81,52.52-39.4,112.9-43.956,59.59-4.5,57.45-2.256,69.06-6.5s14.81-7.225-.74-11.042c-17.31-4.253-95.82-25.189-171.24,1.268-78.79,27.64-119.18,72.149-159.05,125.53-46.638,62.436-59.753,91.256-83.574,136.752-24.886,47.528-34.393,94.973-8.1,101.81C963.707,527.231,1023.44,531.923,1026,518.477Zm280.88,688.753" transform="translate(-2 -1.969)"/>
  <path id="形状_3_拷贝" data-name="形状 3 拷贝" class="cls-6" d="M650.4,579.053c55.335,24.707,272.312,100.716,324.093,81.184s49.71-41.941,53.05-57.153,14.79-89.489,2.54-90.71-178.362-16.683-290.723-62.248S509.944,333.618,491.536,311.594s-21.454-10.366-40.175,41.462-11.688,89.852,52.388,138.525S602.34,557.6,650.4,579.053Z" transform="translate(-2 -1.969)"/>
  <path id="形状_4" data-name="形状 4" class="cls-7" d="M732.092,439.641c100.173,38.668,106.937,23.09,88.982,74.479s-24.558,69.176-33.22,90.264-4.968,24.622-31.938,15.148-129.477-50.627-148.3-58.4-30.4-4.536-18.732-32.651,33.5-87.252,41.707-107.793,14.739-13.154,25.6-9.119S707.619,430.2,732.092,439.641Z" transform="translate(-2 -1.969)"/>
  <path id="形状_5" data-name="形状 5" class="cls-8" d="M653.045,453.659c-5.66,15.679-21.993,56.582-25.624,68.641s-1.689,14.508,25.935,24.506,76.8,29.326,90.162,34.046,20.378,1.88,23.637-7.462,9.432-19.78-.517-23.781-33.5-14.8-43.881-18.38-9.511-24.26,7.39-17.989,22.962,9.155,34.441,13.187,18.05,4.257,21.672-5.806,11.514-22.756-4.7-29.253S678.306,452.91,667.927,448.731,655.32,447.36,653.045,453.659Z" transform="translate(-2 -1.969)"/>
</svg>
